<svg xmlns="http://www.w3.org/2000/svg" class="icon icon-tabler icon-tabler-news" width="24" height="24" stroke-width="2" stroke="currentColor" fill="none" stroke-linecap="round" stroke-linejoin="round"><path d="M4.477 3.073c-.671.176-1.239.75-1.417 1.435-.052.198-.06 1.075-.06 6.544 0 6.224.001 6.321.083 6.721a4.033 4.033 0 0 0 1.873 2.663c.33.2.854.396 1.291.485.386.079.521.081 6.364.07l5.969-.011.28-.094a3.145 3.145 0 0 0 2.026-2.026l.094-.28.011-5.89c.012-6.412.02-6.154-.209-6.607-.136-.267-.485-.634-.765-.802-.408-.246-.613-.276-1.878-.279L17.018 5l-.049-.308a1.905 1.905 0 0 0-.498-1.033 1.993 1.993 0 0 0-.948-.586c-.242-.063-.68-.068-5.523-.068s-5.281.005-5.523.068m10.532 8.717c.01 6.331.016 6.804.081 6.99.038.11.069.205.07.21 0 .005-1.895.01-4.212.01-4.567 0-4.421.007-4.865-.219-.267-.135-.634-.484-.802-.764-.294-.488-.276-.05-.279-6.887L5 5h9.998l.011 6.79M7.614 7.057a.814.814 0 0 0-.505.396c-.074.139-.089.231-.089.547 0 .331.013.403.1.558.11.197.294.34.515.401.196.055 4.534.055 4.73 0a.842.842 0 0 0 .515-.401c.087-.156.1-.226.099-.558-.001-.433-.081-.645-.301-.801-.272-.194-.342-.199-2.694-.196-1.691.002-2.243.014-2.37.054M19 12.554c0 4.59-.01 5.585-.055 5.736a1.02 1.02 0 0 1-.461.582c-.156.091-.23.108-.484.108s-.328-.017-.484-.108a1.199 1.199 0 0 1-.291-.249c-.238-.311-.225.027-.225-6.048V7h2v5.554M7.614 11.057a.814.814 0 0 0-.505.396c-.074.139-.089.231-.089.547 0 .331.013.403.1.558.11.197.294.34.515.401.196.055 4.534.055 4.73 0a.842.842 0 0 0 .515-.401c.087-.156.1-.226.099-.558-.001-.433-.081-.645-.301-.801-.272-.194-.342-.199-2.694-.196-1.691.002-2.243.014-2.37.054m0 4a.814.814 0 0 0-.505.396c-.074.139-.089.231-.089.547 0 .331.013.403.1.558.11.197.294.34.515.401.196.055 4.534.055 4.73 0a.842.842 0 0 0 .515-.401c.087-.156.1-.226.099-.558-.001-.433-.081-.645-.301-.801-.272-.194-.342-.199-2.694-.196-1.691.002-2.243.014-2.37.054" fill="#666666" fill-rule="evenodd" stroke="none"/></svg>