<svg class="icon icon-tabler icon-tabler-tractor" width="24" height="24" stroke-width="2" stroke="currentColor" fill="none" stroke-linecap="round" stroke-linejoin="round" xmlns="http://www.w3.org/2000/svg"><path d="M14.74 2.041c-.589.057-.753.105-.951.28-.221.194-.287.4-.261.809.029.44.197.712.521.848.235.098 1.261.063 1.711-.058.228-.061.494-.321.555-.54.092-.329.033-.771-.137-1.029-.203-.308-.59-.392-1.438-.31m-2.84.735c-.667.244-.87.373-1.005.634-.133.256-.047.753.189 1.096.276.402.621.453 1.33.198.77-.276 1.006-.519.977-1.004-.016-.259-.17-.649-.323-.815-.25-.272-.628-.307-1.168-.109m4.54 1.209c-.35.052-.593.125-.996.302-.507.223-.641.249-1.584.31-.711.046-1.033.12-1.428.33a1.984 1.984 0 0 0-1.031 1.738c-.001.298.153 1.164.246 1.38.098.231.196.324.672.638.827.545 1.137 1.004 1.059 1.569-.033.246-.157.391-.46.543-.249.124-.395.124-.548-.003-.105-.086-.2-.356-.23-.652-.103-1.012-.722-2.071-1.495-2.556a3.475 3.475 0 0 0-1.056-.409c-.52-.105-.918-.02-1.243.265-.241.212-.337.421-.468 1.024-.371 1.709-.819 2.98-1.606 4.552-.5 1-.674 1.272-1.19 1.864-.555.637-.746 1.006-.843 1.632-.208 1.336 1.018 2.309 3.238 2.571.654.077 1.06-.026 1.808-.459.251-.145.482-.264.512-.264.118 0 .448.258.818.639l.385.397.001.312c.002 1.14.571 1.9 1.627 2.176.406.105 1.103.142 1.485.077a1.846 1.846 0 0 0 1.376-1.027c.107-.23.127-.324.143-.676a2.568 2.568 0 0 0-.049-.712l-.068-.303.164-.242c.385-.566.592-1.193.548-1.659-.033-.355-.17-.737-.41-1.143-.115-.195-.199-.364-.186-.376.012-.013.078-.023.146-.024.246-.001.862-.154 1.128-.281.322-.154.638-.454.772-.732.072-.148.101-.299.125-.645.026-.385.061-.544.232-1.067.11-.338.217-.734.236-.881a2.521 2.521 0 0 0-.099-1.041l-.076-.226.141-.026a.895.895 0 0 0 .646-.464c.281-.548.918-3.183.918-3.797 0-.295-.115-.623-.324-.92-.168-.239-.848-.858-1.296-1.179-.585-.42-1.238-.628-1.74-.555m-6.56.574c-.245.131-.809.798-.965 1.141-.162.354-.066.72.265 1.011.369.325.766.419 1.085.257.257-.131.81-.779.98-1.148a.824.824 0 0 0-.01-.69c-.092-.191-.394-.455-.655-.575-.207-.095-.519-.093-.7.004m7.029 1.533c.183.124.851.667.851.692 0 .081-.272 1.349-.365 1.7l-.122.465-.243.067c-.271.076-.614.287-.776.477-.169.201-.295.517-.33.834-.049.445.002.744.192 1.125.09.18.164.374.164.43 0 .056-.091.37-.203.698a6.965 6.965 0 0 0-.248.907l-.045.31-.182.024c-1.313.167-1.887.541-2.102 1.366-.136.521-.021 1.002.419 1.753.155.263.281.517.281.562 0 .046-.147.307-.326.581a7.566 7.566 0 0 0-.406.677c-.113.251-.103.556.028.869.146.351.142.371-.086.37-.374-.001-.357.026-.38-.592-.023-.643-.047-.712-.397-1.153-.618-.778-1.293-1.367-1.893-1.653-.424-.202-.677-.256-1.075-.23-.407.026-.668.123-1.296.48l-.492.279-.248-.027c-.37-.04-.892-.171-1.156-.289-.128-.058-.233-.116-.233-.129 0-.056.162-.28.369-.511.622-.692.806-.969 1.334-1.997.778-1.515 1.31-2.881 1.678-4.307.127-.493.145-.497.34-.087.08.166.135.364.162.584.109.884.422 1.516.968 1.955.587.474 1.408.669 2.083.495.615-.158 1.338-.614 1.704-1.075.406-.51.543-.984.513-1.777-.016-.427-.037-.558-.139-.853a4.113 4.113 0 0 0-.314-.66c-.225-.362-.752-.901-1.166-1.192-.157-.11-.296-.236-.308-.28-.036-.127-.028-.333.015-.359.021-.014.35-.042.73-.064 1.058-.06 1.335-.121 2.031-.449.165-.078.339-.143.386-.145.047-.002.174.057.283.129" fill="#666666" fill-rule="evenodd" stroke="none"/></svg>