<svg xmlns="http://www.w3.org/2000/svg" class="icon icon-tabler icon-tabler-masks-theater" width="24" height="24" stroke-width="2" stroke="currentColor" fill="none" stroke-linecap="round" stroke-linejoin="round"><path d="M3.7 3.042A3.027 3.027 0 0 0 1.32 5.14c-.166.532-.155.812.177 4.383.239 2.581.322 3.343.398 3.64.257 1.01.675 1.729 1.425 2.453.753.725 1.636 1.156 2.727 1.329.502.079 2.762.061 3.004-.025a.843.843 0 0 0 .534-.55c.103-.355.024-.858-.171-1.09-.218-.259-.211-.258-1.794-.283-1.356-.021-1.456-.028-1.72-.114a3.08 3.08 0 0 1-1.842-1.566c-.253-.503-.231-.342-.623-4.638-.28-3.083-.279-2.95-.022-3.287.072-.095.211-.217.309-.272l.178-.1 3.512-.011c2.304-.007 3.564.003 3.664.03.22.059.463.25.587.463.083.142.116.265.14.526.041.446.152.668.416.832.181.112.222.12.578.12.297 0 .414-.017.523-.075.35-.186.48-.448.48-.97 0-.899-.432-1.747-1.178-2.312a2.99 2.99 0 0 0-.962-.508l-.28-.094-3.74-.007c-2.057-.003-3.83.009-3.94.028m1.914 4.013c-.394.129-.575.382-.605.845-.031.481.11.799.433.98.155.087.227.1.558.1.312 0 .408-.016.54-.086C6.866 8.718 7 8.459 7 8c0-.643-.287-.952-.917-.984-.19-.01-.365.005-.469.039m3 0c-.394.129-.575.382-.605.845-.031.481.11.799.433.98.155.087.227.1.558.1.312 0 .408-.016.54-.086.326-.176.46-.435.46-.894 0-.643-.287-.952-.917-.984-.19-.01-.365.005-.469.039m4.086.987a3.027 3.027 0 0 0-2.38 2.098c-.166.532-.155.812.177 4.383.239 2.581.322 3.343.398 3.64.257 1.01.675 1.729 1.425 2.453.745.718 1.628 1.151 2.699 1.325.503.082 2.459.082 2.962 0 1.074-.174 1.954-.607 2.704-1.33.736-.71 1.167-1.451 1.418-2.438.138-.546.713-6.706.684-7.333A2.935 2.935 0 0 0 21.1 8.302c-.608-.295-.341-.278-4.48-.286-2.046-.005-3.81.007-3.92.026m7.603 2.099c.239.147.443.437.479.68.017.113-.072 1.263-.238 3.089-.369 4.051-.349 3.904-.602 4.407a3.071 3.071 0 0 1-1.862 1.569c-.288.09-.35.094-1.58.094s-1.292-.004-1.58-.094a3.057 3.057 0 0 1-1.862-1.569c-.253-.503-.231-.342-.623-4.638-.28-3.081-.279-2.95-.023-3.285a.934.934 0 0 1 .522-.356c.069-.017 1.711-.028 3.649-.024l3.523.006.197.121m-13.149.384c-.413.034-.815.161-1.291.408-.654.341-.903.621-.903 1.013.001.358.311.846.646 1.017.276.141.475.108 1.019-.168.605-.306.836-.338 1.415-.193.482.121.655.084.926-.196.281-.29.43-.84.312-1.153-.187-.494-1.113-.812-2.124-.728m7.46 1.53c-.394.129-.575.382-.605.845-.031.481.11.799.433.98.155.087.227.1.558.1.312 0 .408-.016.54-.086.326-.176.46-.435.46-.894 0-.643-.287-.952-.917-.984-.19-.01-.365.005-.469.039m3 0c-.394.129-.575.382-.605.845-.031.481.11.799.433.98.155.087.227.1.558.1.312 0 .408-.016.54-.086.326-.176.46-.435.46-.894 0-.643-.287-.952-.917-.984-.19-.01-.365.005-.469.039m-2.869 3.425c-.181.056-.403.228-.537.415-.397.553-.316 1.053.231 1.428 1.208.83 2.606.889 3.859.165.538-.311.742-.57.742-.943 0-.345-.313-.833-.648-1.011a.807.807 0 0 0-.358-.068c-.195.001-.273.028-.56.19-.789.448-1.152.45-1.934.01-.337-.19-.592-.25-.795-.186" fill="#666666" fill-rule="evenodd" stroke="none"/></svg>