<svg xmlns="http://www.w3.org/2000/svg" class="icon icon-tabler icon-tabler-coin-euro" width="24" height="24" stroke-width="2" stroke="currentColor" fill="none" stroke-linecap="round" stroke-linejoin="round"><path d="M11.08 2.045A10.098 10.098 0 0 0 6.54 3.63a9.034 9.034 0 0 0-1.621 1.328 9.852 9.852 0 0 0-2.906 7.362c.071 2.119.739 4.008 2.02 5.72.397.53 1.272 1.424 1.767 1.807 1.442 1.114 2.987 1.777 4.8 2.06.647.101 2.153.101 2.8 0 2.238-.35 4.104-1.287 5.662-2.845 1.558-1.558 2.495-3.424 2.845-5.662.101-.647.101-2.153 0-2.8-.283-1.814-.948-3.362-2.06-4.8-.337-.435-1.208-1.306-1.647-1.646-2.067-1.599-4.554-2.336-7.12-2.109m1.654 1.996a7.925 7.925 0 0 1 4.82 2.215 7.979 7.979 0 0 1 1.629 9.243 7.827 7.827 0 0 1-1.687 2.302 7.485 7.485 0 0 1-2.025 1.399 7.941 7.941 0 0 1-6.942 0 7.857 7.857 0 0 1-2.682-2.1c-1.999-2.389-2.407-5.798-1.031-8.6a7.98 7.98 0 0 1 7.104-4.495c.209-.002.575.014.814.036m-1.258 2c-1.294.152-2.55.972-3.379 2.208a6.89 6.89 0 0 0-.586 1.101l-.065.17h-.353c-.445.001-.618.049-.816.227-.358.324-.374 1.152-.028 1.479.176.167.288.22.528.249l.203.025.011.51.011.51h-.131c-.381.001-.71.233-.811.572-.125.421-.043.912.189 1.137.191.185.377.247.826.276l.4.027.087.234c.217.578.74 1.346 1.284 1.881.706.695 1.572 1.145 2.489 1.293a4.313 4.313 0 0 0 3.065-.669c.669-.444 1.047-.894 1.047-1.246 0-.503-.543-1.065-1.027-1.064-.254.001-.458.096-.76.357-.506.436-.969.638-1.541.672a2.385 2.385 0 0 1-1.269-.294c-.31-.174-.773-.603-1.003-.93l-.166-.237.81-.017c.894-.019 1.016-.047 1.26-.283.232-.225.314-.716.189-1.137a.827.827 0 0 0-.527-.529c-.091-.025-.603-.043-1.258-.043H9.049l-.024-.09c-.034-.127-.03-.801.006-.856.02-.033.361-.051 1.149-.062 1.237-.017 1.309-.03 1.571-.283.232-.225.314-.716.189-1.137a.827.827 0 0 0-.527-.529c-.084-.023-.508-.043-.943-.043-.435 0-.79-.011-.79-.025 0-.065.376-.539.585-.738.636-.605 1.358-.848 2.131-.718.379.064.899.325 1.244.625.575.498.986.512 1.453.047.332-.332.437-.725.282-1.058-.088-.19-.465-.56-.835-.822a4.34 4.34 0 0 0-3.064-.79" fill="#666666" fill-rule="evenodd" stroke="none"/></svg>