<svg xmlns="http://www.w3.org/2000/svg" class="icon icon-tabler icon-tabler-steering-wheel" width="24" height="24" stroke-width="2" stroke="currentColor" fill="none" stroke-linecap="round" stroke-linejoin="round"><path d="M11.08 2.045A10.098 10.098 0 0 0 6.54 3.63a9.034 9.034 0 0 0-1.621 1.328 9.852 9.852 0 0 0-2.906 7.362c.071 2.119.739 4.008 2.02 5.72.397.53 1.272 1.424 1.767 1.807 1.442 1.114 2.987 1.777 4.8 2.06.647.101 2.153.101 2.8 0 2.238-.35 4.104-1.287 5.662-2.845 1.558-1.558 2.495-3.424 2.845-5.662.101-.647.101-2.153 0-2.8-.283-1.814-.948-3.362-2.06-4.8-.337-.435-1.208-1.306-1.647-1.646-2.067-1.599-4.554-2.336-7.12-2.109m1.654 1.996a7.982 7.982 0 0 1 6.394 4.345c.258.511.412.887.378.922-.028.027-4.66 1.409-4.732 1.411-.026 0-.1-.093-.166-.209a3.149 3.149 0 0 0-1.747-1.385c-.273-.083-.403-.098-.861-.098-.458 0-.588.015-.861.098a3.149 3.149 0 0 0-1.747 1.385c-.066.116-.14.209-.166.209-.072-.002-4.704-1.384-4.732-1.411-.064-.064.463-1.152.824-1.702.28-.426.737-.973 1.128-1.35a7.953 7.953 0 0 1 6.288-2.215m-.474 7.003a.942.942 0 0 1 .703.801c.068.437-.105.807-.479 1.027-.156.091-.23.108-.484.108s-.328-.017-.484-.108a1.043 1.043 0 0 1-.462-.572c-.081-.237-.022-.647.125-.858a.985.985 0 0 1 1.081-.398m-5.64.998c1.342.397 2.451.735 2.465.75.014.016.048.1.075.188.206.663.827 1.366 1.51 1.708l.33.165v5.067h-.102c-.426 0-1.649-.371-2.369-.72a7.857 7.857 0 0 1-2.682-2.1A8.07 8.07 0 0 1 4 11.976c0-.487.037-.702.116-.678.035.012 1.162.346 2.504.744m13.355-.576c.101.738-.067 2.081-.379 3.031a8.086 8.086 0 0 1-3.285 4.239 8.8 8.8 0 0 1-1.811.859c-.479.156-1.203.325-1.398.325H13v-5.067l.33-.165c.689-.345 1.318-1.061 1.514-1.722.028-.096.079-.185.114-.199a728.31 728.31 0 0 1 4.967-1.483c.013-.002.036.08.05.182" fill="#666666" fill-rule="evenodd" stroke="none"/></svg>