<svg xmlns="http://www.w3.org/2000/svg" class="icon icon-tabler icon-tabler-crown" width="24" height="24" stroke-width="2" stroke="currentColor" fill="none" stroke-linecap="round" stroke-linejoin="round"><path d="M11.62 5.026a1.37 1.37 0 0 0-.235.169c-.063.058-.889 1.266-1.835 2.685a319.03 319.03 0 0 1-1.753 2.616c-.018.02-.946-.695-2.12-1.635-1.148-.918-2.153-1.708-2.232-1.755-.113-.067-.21-.086-.445-.086-.386 0-.709.144-.87.389-.212.319-.236.161.888 5.781.564 2.822 1.051 5.189 1.08 5.26a.856.856 0 0 0 .396.441l.166.089h14.68l.168-.09a.923.923 0 0 0 .406-.47C19.985 18.237 22 8.123 22 7.948c0-.329-.33-.793-.663-.932a.84.84 0 0 0-.717.056c-.11.061-1.141.864-2.292 1.785-1.174.939-2.107 1.659-2.125 1.639-.018-.02-.807-1.197-1.753-2.617-1.786-2.681-1.801-2.7-2.179-2.857-.189-.079-.497-.077-.651.004m1.984 5.183c.867 1.302 1.638 2.438 1.713 2.523.281.315.645.391 1.023.213.11-.052.855-.619 1.656-1.26.801-.642 1.46-1.162 1.466-1.156.006.006-.28 1.464-.636 3.241L18.181 17H5.819l-.645-3.23a212.995 212.995 0 0 1-.636-3.241c.006-.006.674.521 1.486 1.171.812.65 1.549 1.217 1.639 1.261.327.159.686.09.983-.189.058-.054.831-1.187 1.716-2.516C11.248 8.927 11.985 7.84 12 7.84c.015 0 .737 1.066 1.604 2.369" fill="#666666" fill-rule="evenodd" stroke="none"/></svg>