<svg xmlns="http://www.w3.org/2000/svg" class="icon icon-tabler icon-tabler-podium" width="24" height="24" stroke-width="2" stroke="currentColor" fill="none" stroke-linecap="round" stroke-linejoin="round"><path d="M9.358 2.061c-1.128.176-2.215.913-2.789 1.892C6.152 4.664 6 5.294 6 6.313v.68l-.631.013c-.621.014-.635.016-.9.146-.35.173-.479.371-.474.728.004.282.676 3.008.825 3.344.215.485.608.949 1.073 1.265.29.197.522.301.906.409l.299.084.365 3.279c.2 1.804.376 3.383.391 3.509l.027.23h-.534c-.765 0-1.052.105-1.238.453-.074.139-.089.231-.089.547 0 .331.013.403.1.558.11.197.294.34.515.401.199.056 10.531.056 10.73 0a.842.842 0 0 0 .515-.401c.087-.156.1-.226.099-.558-.001-.313-.017-.409-.089-.547-.184-.348-.471-.453-1.237-.453h-.534l.027-.23c.015-.126.191-1.705.391-3.509l.365-3.279.299-.084c.387-.108.618-.213.906-.411.486-.334.89-.819 1.088-1.307.053-.132.258-.879.455-1.66.319-1.265.356-1.447.336-1.668-.027-.296-.138-.533-.308-.653C19.39 6.993 19.593 7 13.594 7H8v-.602c0-.716.064-1.049.265-1.384.181-.302.377-.506.672-.7.302-.198.544-.27 1.045-.311.551-.046.745-.147.922-.483.114-.215.105-.841-.014-1.067-.216-.408-.674-.526-1.532-.392m8.361 6.949c0 .005-.081.325-.18.71-.201.786-.283.941-.601 1.14l-.192.12H7.254l-.192-.12c-.318-.199-.4-.354-.601-1.14-.099-.385-.18-.705-.18-.71C6.28 9.005 8.854 9 12 9c3.146 0 5.72.005 5.719.01m-2.849 4.1c-.011.061-.189 1.635-.395 3.5L14.101 20H9.899l-.374-3.39a411.945 411.945 0 0 0-.395-3.5L9.11 13h5.78l-.02.11" fill="#666666" fill-rule="evenodd" stroke="none"/></svg>