<svg xmlns="http://www.w3.org/2000/svg" class="icon icon-tabler icon-tabler-ice-skating" width="24" height="24" stroke-width="2" stroke="currentColor" fill="none" stroke-linecap="round" stroke-linejoin="round"><path d="M5.52 4.046c-.702.116-1.4.782-1.558 1.485-.062.278-.846 8.166-.845 8.509.001.648.304 1.219.85 1.602.482.338.474.336 2.363.35l1.67.012V18H5.406c-2.769 0-2.809.003-3.084.199-.222.158-.302.369-.302.801 0 .331.013.403.1.558.11.197.294.34.515.401.095.027 3.154.041 8.887.041 9.54 0 8.935.014 9.408-.225.266-.135.708-.575.841-.838.332-.655.289-1.467-.093-1.738-.363-.259-.993-.259-1.356 0-.157.111-.28.351-.31.604l-.023.197H16v-2h1.632c1.767 0 1.875-.01 2.298-.225.266-.135.708-.575.841-.838.202-.397.239-.644.218-1.457-.021-.854-.061-1.043-.331-1.585-.368-.736-1.124-1.368-1.878-1.569-.088-.024-1.267-.26-2.62-.525-1.353-.265-2.566-.52-2.695-.568a2.274 2.274 0 0 1-.47-.26c-.427-.314-.519-.484-1.231-2.262-.361-.903-.706-1.704-.782-1.817-.283-.42-.799-.763-1.279-.851-.291-.053-3.861-.051-4.183.003M9.899 7.44c.679 1.691.71 1.763.872 2.02.538.855 1.409 1.507 2.352 1.762.119.032 1.312.275 2.65.539 1.339.264 2.5.508 2.58.542.186.077.429.31.539.517.071.133.088.245.101.67l.015.51h-6.944c-5.528 0-6.944-.01-6.945-.05-.001-.092.764-7.769.784-7.86l.019-.091 1.703.011 1.703.01.571 1.42M14 17v1h-4v-2h4v1" fill="#777777" fill-rule="evenodd" stroke="none"/></svg>