<svg xmlns="http://www.w3.org/2000/svg" class="icon icon-tabler icon-tabler-cpu-2" width="24" height="24" stroke-width="2" stroke="currentColor" fill="none" stroke-linecap="round" stroke-linejoin="round"><path d="M9.614 2.057a.814.814 0 0 0-.505.396c-.08.15-.09.236-.102.857L8.993 4l-1.626.002c-1.822.003-1.951.018-2.384.279-.28.168-.629.535-.764.802C4.011 5.492 4 5.61 4 7.368V9h-.594c-.829 0-1.106.097-1.297.453-.074.139-.089.231-.089.547 0 .331.013.403.1.558.11.197.294.34.515.401.08.022.419.041.755.041H4v2h-.594c-.829 0-1.106.097-1.297.453-.074.139-.089.231-.089.547 0 .331.013.403.1.558.11.197.294.34.515.401.08.022.419.041.755.041H4v1.632c0 1.767.01 1.875.225 2.298.136.269.576.709.845.845.423.215.531.225 2.298.225H9v.61c0 .336.019.675.041.755.107.385.396.597.855.626.485.031.803-.109.984-.433.094-.167.101-.22.114-.868l.014-.69H13v.61c0 .336.019.675.041.755.107.385.396.597.855.626.485.031.803-.109.984-.433.094-.167.101-.22.114-.868l.014-.69h1.628c1.763 0 1.871-.011 2.294-.225.266-.135.708-.575.841-.838.217-.427.229-.551.229-2.313V15h.61c.336 0 .675-.019.755-.041a.842.842 0 0 0 .515-.401c.087-.156.1-.226.099-.558-.001-.313-.017-.409-.089-.547-.188-.356-.466-.453-1.296-.453H20v-2h.61c.336 0 .675-.019.755-.041a.842.842 0 0 0 .515-.401c.087-.156.1-.226.099-.558-.001-.313-.017-.409-.089-.547-.188-.356-.466-.453-1.296-.453H20l-.001-1.61c0-1.738-.017-1.911-.218-2.307-.135-.267-.484-.634-.764-.802-.433-.261-.562-.276-2.383-.279L15.008 4l-.015-.69c-.018-.787-.066-.946-.344-1.128-.45-.295-1.223-.203-1.479.176-.141.21-.17.381-.17 1.032V4h-1.992l-.015-.69c-.017-.769-.063-.932-.315-1.111-.264-.189-.721-.249-1.064-.142M18 12v6H6V6h12v6M7.614 7.057a.814.814 0 0 0-.505.396c-.086.161-.089.212-.101 1.455-.008.812.003 1.346.03 1.444.106.395.394.609.858.639.485.031.803-.109.984-.433.094-.167.101-.22.114-.868L9.008 9h.606c.333 0 .671-.019.751-.041a.842.842 0 0 0 .515-.401c.087-.156.1-.226.099-.558-.001-.313-.017-.409-.089-.547-.104-.197-.267-.322-.519-.398-.254-.076-2.512-.074-2.757.002m6 0a.814.814 0 0 0-.505.396c-.074.139-.089.231-.089.547 0 .331.013.403.1.558.11.197.294.34.515.401.08.022.42.041.755.041H15v.61c0 .335.019.675.041.755.107.385.396.597.855.626.485.031.803-.109.984-.433l.1-.178V9c0-1.35-.002-1.384-.089-1.547-.106-.197-.269-.322-.52-.398-.254-.076-2.512-.074-2.757.002m-6 6a.814.814 0 0 0-.505.396c-.087.163-.089.197-.089 1.547v1.38l.1.178c.11.197.294.34.515.401.191.053 2.539.053 2.73 0a.842.842 0 0 0 .515-.401c.087-.156.1-.226.099-.558-.001-.313-.017-.409-.089-.547-.188-.355-.467-.453-1.292-.453h-.59l-.015-.69c-.017-.769-.063-.932-.315-1.111-.264-.189-.721-.249-1.064-.142m8 0a.814.814 0 0 0-.505.396c-.08.15-.09.236-.102.857l-.014.69h-.59c-.826 0-1.104.097-1.294.453-.074.139-.089.231-.089.547 0 .331.013.403.1.558.11.197.294.34.515.401.191.053 2.539.053 2.73 0a.842.842 0 0 0 .515-.401l.1-.178V15c0-1.35-.002-1.384-.089-1.547a.874.874 0 0 0-.213-.254c-.264-.189-.721-.249-1.064-.142" fill="#777777" fill-rule="evenodd" stroke="none"/></svg>