<svg xmlns="http://www.w3.org/2000/svg" class="icon icon-tabler icon-tabler-ball-tennis" width="24" height="24" stroke-width="2" stroke="currentColor" fill="none" stroke-linecap="round" stroke-linejoin="round"><path d="M11.08 2.045c-1.873.165-3.709.898-5.28 2.108-.786.605-1.786 1.732-2.33 2.627-1.364 2.24-1.804 4.963-1.21 7.48a9.835 9.835 0 0 0 2.659 4.783c1.564 1.571 3.433 2.513 5.681 2.864.647.101 2.153.101 2.8 0 2.238-.35 4.104-1.287 5.662-2.845 1.558-1.558 2.495-3.424 2.845-5.662.101-.647.101-2.153 0-2.8-.283-1.814-.949-3.365-2.061-4.8-.341-.441-1.213-1.312-1.646-1.647-2.078-1.602-4.554-2.335-7.12-2.108m1.654 1.996a8.045 8.045 0 0 1 3.329 1.07c.486.286.471.229.163.614-1.258 1.57-1.996 3.411-2.185 5.455-.229 2.469.576 5.088 2.177 7.086.144.18.262.336.262.348 0 .043-.6.391-1.04.602a7.962 7.962 0 0 1-6.88 0c-.442-.212-1.04-.559-1.04-.603 0-.012.104-.15.231-.309 1.626-2.021 2.438-4.641 2.208-7.124-.191-2.059-.933-3.9-2.215-5.494-.274-.34-.291-.29.193-.575a8.03 8.03 0 0 1 4.797-1.07M6.556 7.44c1.583 2.313 1.87 5.229.763 7.743a7.875 7.875 0 0 1-1.121 1.855l-.204.245-.223-.271c-1.674-2.033-2.204-4.948-1.368-7.51A8.378 8.378 0 0 1 5.735 7.03l.245-.309.172.189c.094.105.276.343.404.53m12.135.18c1.316 1.993 1.657 4.587.905 6.877-.285.868-.817 1.847-1.366 2.513l-.222.271-.162-.184c-.205-.232-.586-.79-.802-1.174-1.223-2.169-1.36-4.842-.363-7.106.313-.711.778-1.474 1.165-1.914l.162-.184.222.271c.123.148.33.432.461.63" fill="#666666" fill-rule="evenodd" stroke="none"/></svg>