<svg xmlns="http://www.w3.org/2000/svg" class="icon icon-tabler icon-tabler-ball-football" width="24" height="24" stroke-width="2" stroke="currentColor" fill="none" stroke-linecap="round" stroke-linejoin="round"><path d="M11.08 2.045A10.098 10.098 0 0 0 6.54 3.63a9.034 9.034 0 0 0-1.621 1.328 9.839 9.839 0 0 0-2.906 7.362c.071 2.119.739 4.008 2.02 5.72.397.53 1.272 1.424 1.767 1.807 1.442 1.114 2.987 1.777 4.8 2.06.647.101 2.153.101 2.8 0 2.238-.35 4.104-1.287 5.662-2.845 1.558-1.559 2.497-3.427 2.844-5.662.089-.57.102-2.11.022-2.66-.272-1.88-.94-3.464-2.081-4.94-.337-.435-1.208-1.306-1.647-1.646-2.067-1.599-4.554-2.336-7.12-2.109m-.081 3.245-.002 1.21-1.384 1-1.954 1.411-.568.411-1.096-.426a55.352 55.352 0 0 1-1.127-.444c-.071-.043.502-.975.897-1.459 1.175-1.44 2.812-2.448 4.575-2.816.242-.05.49-.093.55-.094L11 4.08l-.001 1.21m2.587-1.127c1.171.226 2.497.846 3.414 1.596a9.016 9.016 0 0 1 1.633 1.771c.263.392.538.899.499.922-.018.011-.525.211-1.127.444l-1.096.426-.569-.411L14.387 7.5l-1.384-1-.002-1.21c-.001-1.173.001-1.21.077-1.21.043 0 .271.037.508.083m.212 5.376 1.792 1.3-.189.59c-.104.325-.402 1.262-.661 2.081L14.267 15H9.733l-.473-1.49c-.259-.819-.557-1.756-.661-2.08l-.189-.591 1.785-1.297a209.61 209.61 0 0 1 1.798-1.3c.007-.001.819.583 1.805 1.297m-8.471 1.243c.599.232 1.094.426 1.099.431.023.022 1.454 4.57 1.454 4.618 0 .029-.344.449-.765.933l-.765.881-.1-.093a7.076 7.076 0 0 1-.403-.452c-1.307-1.56-1.979-3.659-1.816-5.67.052-.641.121-1.07.171-1.07.019 0 .525.19 1.125.422m14.55-.172c.16.878.145 2.026-.038 2.968-.177.912-.629 2.015-1.147 2.802-.233.353-.748.995-.936 1.167l-.096.088-.7-.84a83.677 83.677 0 0 1-.769-.931c-.067-.09-.049-.154.652-2.367.397-1.251.725-2.279.731-2.284a69.92 69.92 0 0 1 2.212-.851c.025-.001.066.111.091.248m-4.569 7.317c.423.51.758.943.745.964-.013.021-.26.153-.548.293-2.249 1.09-4.763 1.089-7.015-.003-.291-.141-.53-.275-.53-.298 0-.036.625-.773 1.35-1.593l.257-.29 2.487.001 2.486.001.768.925" fill="#777777" fill-rule="evenodd" stroke="none"/></svg>