<svg xmlns="http://www.w3.org/2000/svg" class="icon icon-tabler icon-tabler-bike" width="24" height="24" stroke-width="2" stroke="currentColor" fill="none" stroke-linecap="round" stroke-linejoin="round"><path d="M16.477 3.073c-.671.176-1.239.75-1.417 1.435a2.07 2.07 0 0 0 .165 1.422c.136.269.576.709.845.845a2.047 2.047 0 0 0 1.86 0c.266-.135.708-.575.841-.838a2.05 2.05 0 0 0 .169-1.408 1.806 1.806 0 0 0-.475-.876 1.984 1.984 0 0 0-1.988-.58M13.62 7.072c-.303.168-5.386 4.257-5.486 4.413-.217.343-.243.581-.094.878.06.118.563.653 1.525 1.618L11 15.422v1.899c0 1.149.016 1.956.041 2.044.107.385.396.597.855.626.485.031.803-.109.984-.433l.1-.178v-2.34c0-2.204-.004-2.348-.074-2.48-.041-.077-.599-.666-1.239-1.309-.71-.714-1.149-1.184-1.126-1.205.022-.019.757-.608 1.635-1.309 1.5-1.198 1.599-1.27 1.648-1.196 1.365 2.044 1.477 2.198 1.673 2.318l.197.121 1.753.012c1.122.007 1.808-.004 1.907-.03a.845.845 0 0 0 .526-.404c.087-.156.1-.226.099-.558-.001-.433-.081-.645-.301-.801-.256-.183-.406-.199-1.818-.199h-1.327l-.895-1.343c-.492-.739-.957-1.398-1.034-1.465-.298-.263-.649-.305-.984-.12m-9.262 6.989c-1.128.176-2.215.913-2.789 1.892a3.992 3.992 0 0 0 1.943 5.751 3.988 3.988 0 0 0 5.192-2.216 3.963 3.963 0 0 0 .001-2.972 3.978 3.978 0 0 0-3.1-2.458 3.728 3.728 0 0 0-1.247.003m14 0c-1.128.176-2.215.913-2.789 1.892a3.992 3.992 0 0 0 1.943 5.751 3.988 3.988 0 0 0 5.192-2.216 3.963 3.963 0 0 0 .001-2.972 3.978 3.978 0 0 0-3.1-2.458 3.728 3.728 0 0 0-1.247.003M5.523 16.073a2.011 2.011 0 0 1 1.444 1.617c.1.653-.094 1.243-.564 1.714C6.002 19.807 5.547 20 5 20c-.515 0-.962-.178-1.347-.535-1.33-1.236-.464-3.46 1.347-3.46.143 0 .378.031.523.068m14 0a2.011 2.011 0 0 1 1.444 1.617c.1.653-.094 1.243-.564 1.714-.401.403-.856.596-1.403.596-.515 0-.962-.178-1.347-.535-1.33-1.236-.464-3.46 1.347-3.46.143 0 .378.031.523.068" fill="#666666" fill-rule="evenodd" stroke="none"/></svg>